{
  "source": "C:\\Users\\Peter\\Desktop\\stuff\\MIUN\\quantitative_research\\video_compression\\videos\\HEVC_CLASS_B\\Cactus_1920x1080_50.y4m",
  "output": "C:\\Users\\Peter\\Desktop\\stuff\\MIUN\\quantitative_research\\video_compression\\compressed_videos\\HEVC_CLASS_B\\av1\\12\\Cactus_1920x1080_50_av1.mkv",
  "codec": "av1",
  "ok": "Input #0, yuv4mpegpipe, from 'C:\\Users\\Peter\\Desktop\\stuff\\MIUN\\quantitative_research\\video_compression\\videos\\HEVC_CLASS_B\\Cactus_1920x1080_50.y4m':\n  Duration: 00:00:10.00, start: 0.000000, bitrate: 1244162 kb/s\n  Stream #0:0: Video: rawvideo (I420 / 0x30323449), yuv420p(progressive), 1920x1080, 50 fps, 50 tbr, 50 tbn\n[out#0/matroska @ 0000025b356d9340] Codec AVOption b:a (set bitrate (in bits/s)) has not been used for any stream. The most likely reason is either wrong type (e.g. a video option with no video streams) or that it is a private option of some decoder which was not actually used for any stream.\nStream mapping:\n  Stream #0:0 -> #0:0 (rawvideo (native) -> av1 (libsvtav1))\nPress [q] to stop, [?] for help\nSvt[info]: -------------------------------------------\nSvt[info]: SVT [version]:\tSVT-AV1 Encoder Lib v3.1.0-19-g6ecfe8ec\nSvt[info]: SVT [build]  :\tGCC 15.2.0\t 64 bit\nSvt[info]: LIB Build date: Aug 17 2025 11:37:13\nSvt[info]: -------------------------------------------\n[libsvtav1 @ 0000025b356dc480] Specified chroma sample location center is unsupported on the AV1 bit stream level. Usage of a container that allows passing this information - such as Matroska - is recommended.\nSvt[info]: Level of Parallelism: 5\nSvt[info]: Number of PPCS 93\nSvt[info]: [asm level on system : up to avx2]\nSvt[info]: [asm level selected : up to avx2]\nSvt[info]: -------------------------------------------\nSvt[info]: SVT [config]: main profile\ttier (auto)\tlevel (auto)\nSvt[info]: SVT [config]: width / height / fps numerator / fps denominator \t\t: 1920 / 1080 / 50 / 1\nSvt[info]: SVT [config]: bit-depth / color format \t\t\t\t\t: 8 / YUV420\nSvt[info]: SVT [config]: preset / tune / pred struct \t\t\t\t\t: 4 / PSNR / random access\nSvt[info]: SVT [config]: gop size / mini-gop size / key-frame type \t\t\t: 321 / 16 / key frame\nSvt[info]: SVT [config]: BRC mode / target bitrate (kbps)\t\t\t\t: VBR / 12000 \nSvt[info]: SVT [config]: AQ mode / Variance Boost \t\t\t\t\t: 2 / 0\nSvt[info]: SVT [config]: sharpness / luminance-based QP bias \t\t\t\t: 0 / 0\nSvt[info]: SVT [config]: QP scale compress strength \t\t\t\t\t: 0\nSvt[info]: -------------------------------------------\nOutput #0, matroska, to 'C:\\Users\\Peter\\Desktop\\stuff\\MIUN\\quantitative_research\\video_compression\\compressed_videos\\HEVC_CLASS_B\\av1\\12\\Cactus_1920x1080_50_av1.mkv':\n  Metadata:\n    encoder         : Lavf62.3.100\n  Stream #0:0: Video: av1 (AV01 / 0x31305641), yuv420p(tv, progressive), 1920x1080, q=2-31, 12000 kb/s, 50 fps, 1k tbn\n    Metadata:\n      encoder         : Lavc62.11.100 libsvtav1\n    Side data:\n      cpb: bitrate max/min/avg: 0/0/12000000 buffer size: 12000000 vbv_delay: N/A\nframe=    0 fps=0.0 q=0.0 size=       0KiB time=N/A bitrate=N/A speed=N/A elapsed=0:00:02.78    \nframe=    0 fps=0.0 q=0.0 size=       0KiB time=N/A bitrate=N/A speed=N/A elapsed=0:00:04.82    \nframe=    0 fps=0.0 q=0.0 size=       0KiB time=N/A bitrate=N/A speed=N/A elapsed=0:00:05.83    \nframe=    0 fps=0.0 q=0.0 size=       0KiB time=N/A bitrate=N/A speed=N/A elapsed=0:00:06.81    \nframe=    0 fps=0.0 q=0.0 size=       0KiB time=N/A bitrate=N/A speed=N/A elapsed=0:00:07.80    \nframe=    0 fps=0.0 q=0.0 size=       0KiB time=N/A bitrate=N/A speed=N/A elapsed=0:00:08.64    \nframe=    1 fps=0.1 q=6.0 size=       1KiB time=N/A bitrate=N/A speed=N/A elapsed=0:00:09.37    \nframe=    1 fps=0.1 q=6.0 size=       1KiB time=00:00:00.00 bitrate=N/A speed=   0x elapsed=0:00:09.99    \nframe=    1 fps=0.1 q=6.0 size=       1KiB time=00:00:00.00 bitrate=N/A speed=   0x elapsed=0:00:10.62    \nframe=    1 fps=0.1 q=6.0 size=       1KiB time=00:00:00.00 bitrate=N/A speed=   0x elapsed=0:00:11.39    \nframe=    1 fps=0.1 q=6.0 size=       1KiB time=00:00:00.00 bitrate=N/A speed=   0x elapsed=0:00:12.24    \nframe=    4 fps=0.3 q=30.0 size=       1KiB time=00:00:00.06 bitrate=  74.9kbits/s speed=0.00459x elapsed=0:00:13.06    \nframe=    7 fps=0.5 q=26.0 size=       1KiB time=00:00:00.10 bitrate=  45.0kbits/s speed=0.00722x elapsed=0:00:13.84    \nframe=    8 fps=0.5 q=26.0 size=       1KiB time=00:00:00.14 bitrate=  32.1kbits/s speed=0.0096x elapsed=0:00:14.58    \nframe=    9 fps=0.6 q=22.0 size=       1KiB time=00:00:00.16 bitrate=  28.1kbits/s speed=0.0105x elapsed=0:00:15.21    \nframe=   10 fps=0.6 q=25.0 size=       1KiB time=00:00:00.18 bitrate=  25.0kbits/s speed=0.0114x elapsed=0:00:15.72    \nframe=   11 fps=0.7 q=25.0 size=       1KiB time=00:00:00.20 bitrate=  22.5kbits/s speed=0.0123x elapsed=0:00:16.23    \nframe=   13 fps=0.8 q=23.0 size=       1KiB time=00:00:00.24 bitrate=  18.7kbits/s speed=0.0143x elapsed=0:00:16.76    \nframe=   16 fps=0.9 q=22.0 size=       1KiB time=00:00:00.30 bitrate=  15.0kbits/s speed=0.0174x elapsed=0:00:17.27    \nframe=   18 fps=1.0 q=22.0 size=       1KiB time=00:00:00.34 bitrate=  13.2kbits/s speed=0.0191x elapsed=0:00:17.78    \nframe=   19 fps=1.0 q=25.0 size=       1KiB time=00:00:00.36 bitrate=  12.5kbits/s speed=0.0197x elapsed=0:00:18.30    \nframe=   21 fps=1.1 q=24.0 size=       1KiB time=00:00:00.40 bitrate=  11.2kbits/s speed=0.0213x elapsed=0:00:18.81    \nframe=   22 fps=1.1 q=22.0 size=       1KiB time=00:00:00.42 bitrate=  10.7kbits/s speed=0.0217x elapsed=0:00:19.33    \nframe=   23 fps=1.2 q=25.0 size=       1KiB time=00:00:00.44 bitrate=  10.2kbits/s speed=0.0222x elapsed=0:00:19.84    \nframe=   26 fps=1.3 q=21.0 size=       1KiB time=00:00:00.50 bitrate=   9.0kbits/s speed=0.0245x elapsed=0:00:20.36    \nframe=   27 fps=1.3 q=25.0 size=       1KiB time=00:00:00.52 bitrate=   8.6kbits/s speed=0.0249x elapsed=0:00:20.88    \nframe=   29 fps=1.4 q=23.0 size=       1KiB time=00:00:00.56 bitrate=   8.0kbits/s speed=0.0262x elapsed=0:00:21.40    \nframe=   30 fps=1.4 q=21.0 size=       1KiB time=00:00:00.58 bitrate=   7.8kbits/s speed=0.0265x elapsed=0:00:21.91    \nframe=   32 fps=1.4 q=21.0 size=       1KiB time=00:00:00.62 bitrate=   7.3kbits/s speed=0.0276x elapsed=0:00:22.42    \nframe=   32 fps=1.4 q=21.0 size=       1KiB time=00:00:00.62 bitrate=   7.3kbits/s speed=0.027x elapsed=0:00:22.94    \nframe=   34 fps=1.4 q=21.0 size=       1KiB time=00:00:00.66 bitrate=   6.8kbits/s speed=0.0281x elapsed=0:00:23.46    \nframe=   36 fps=1.5 q=20.0 size=       1KiB time=00:00:00.70 bitrate=   6.4kbits/s speed=0.0292x elapsed=0:00:23.97    \nframe=   37 fps=1.5 q=24.0 size=       1KiB time=00:00:00.72 bitrate=   6.2kbits/s speed=0.0294x elapsed=0:00:24.49    \nframe=   38 fps=1.5 q=23.0 size=       1KiB time=00:00:00.74 bitrate=   6.1kbits/s speed=0.0296x elapsed=0:00:25.00    \nframe=   39 fps=1.5 q=25.0 size=       1KiB time=00:00:00.76 bitrate=   5.9kbits/s speed=0.0298x elapsed=0:00:25.52    \nframe=   39 fps=1.5 q=25.0 size=       1KiB time=00:00:00.76 bitrate=   5.9kbits/s speed=0.0292x elapsed=0:00:26.03    \nframe=   42 fps=1.6 q=21.0 size=       1KiB time=00:00:00.82 bitrate=   5.5kbits/s speed=0.0309x elapsed=0:00:26.55    \nframe=   43 fps=1.6 q=24.0 size=       1KiB time=00:00:00.84 bitrate=   5.4kbits/s speed=0.031x elapsed=0:00:27.06    \nframe=   44 fps=1.6 q=20.0 size=       1KiB time=00:00:00.86 bitrate=   5.2kbits/s speed=0.0312x elapsed=0:00:27.58    \nframe=   45 fps=1.6 q=22.0 size=       1KiB time=00:00:00.88 bitrate=   5.1kbits/s speed=0.0313x elapsed=0:00:28.10    \nframe=   48 fps=1.7 q=21.0 size=       1KiB time=00:00:00.94 bitrate=   4.8kbits/s speed=0.0328x elapsed=0:00:28.62    \nframe=   51 fps=1.8 q=25.0 size=       1KiB time=00:00:01.00 bitrate=   4.5kbits/s speed=0.0343x elapsed=0:00:29.13    \nframe=   52 fps=1.8 q=22.0 size=       1KiB time=00:00:01.02 bitrate=   4.4kbits/s speed=0.0344x elapsed=0:00:29.65    \nframe=   53 fps=1.8 q=24.0 size=       1KiB time=00:00:01.04 bitrate=   4.3kbits/s speed=0.0345x elapsed=0:00:30.16    \nframe=   54 fps=1.8 q=21.0 size=       1KiB time=00:00:01.06 bitrate=   4.2kbits/s speed=0.0345x elapsed=0:00:30.68    \nframe=   55 fps=1.8 q=23.0 size=       1KiB time=00:00:01.08 bitrate=   4.2kbits/s speed=0.0346x elapsed=0:00:31.19    \nframe=   57 fps=1.8 q=19.0 size=       1KiB time=00:00:01.12 bitrate=   4.0kbits/s speed=0.0353x elapsed=0:00:31.70    \nframe=   58 fps=1.8 q=22.0 size=       1KiB time=00:00:01.14 bitrate=   3.9kbits/s speed=0.0354x elapsed=0:00:32.22    \nframe=   59 fps=1.8 q=25.0 size=       1KiB time=00:00:01.16 bitrate=   3.9kbits/s speed=0.0354x elapsed=0:00:32.74    \nframe=   61 fps=1.8 q=21.0 size=       1KiB time=00:00:01.20 bitrate=   3.7kbits/s speed=0.0361x elapsed=0:00:33.25    \nframe=   64 fps=1.9 q=22.0 size=       1KiB time=00:00:01.26 bitrate=   3.6kbits/s speed=0.0373x elapsed=0:00:33.76    \nframe=   66 fps=1.9 q=23.0 size=       1KiB time=00:00:01.30 bitrate=   3.5kbits/s speed=0.0379x elapsed=0:00:34.29    \nframe=   67 fps=1.9 q=25.0 size=       1KiB time=00:00:01.32 bitrate=   3.4kbits/s speed=0.0379x elapsed=0:00:34.79    \nframe=   69 fps=2.0 q=23.0 size=       1KiB time=00:00:01.36 bitrate=   3.3kbits/s speed=0.0385x elapsed=0:00:35.31    \nframe=   71 fps=2.0 q=25.0 size=       1KiB time=00:00:01.40 bitrate=   3.2kbits/s speed=0.0391x elapsed=0:00:35.83    \nframe=   73 fps=2.0 q=19.0 size=       1KiB time=00:00:01.44 bitrate=   3.1kbits/s speed=0.0396x elapsed=0:00:36.35    \nframe=   75 fps=2.0 q=25.0 size=       1KiB time=00:00:01.48 bitrate=   3.0kbits/s speed=0.0401x elapsed=0:00:36.86    \nframe=   76 fps=2.0 q=21.0 size=       1KiB time=00:00:01.50 bitrate=   3.0kbits/s speed=0.0401x elapsed=0:00:37.38    \nframe=   79 fps=2.1 q=25.0 size=       1KiB time=00:00:01.56 bitrate=   2.9kbits/s speed=0.0412x elapsed=0:00:37.89    \nframe=   82 fps=2.1 q=24.0 size=       1KiB time=00:00:01.62 bitrate=   2.8kbits/s speed=0.0422x elapsed=0:00:38.41    \nframe=   83 fps=2.1 q=24.0 size=       1KiB time=00:00:01.64 bitrate=   2.7kbits/s speed=0.0421x elapsed=0:00:38.93    \nframe=   86 fps=2.2 q=23.0 size=       1KiB time=00:00:01.70 bitrate=   2.6kbits/s speed=0.0431x elapsed=0:00:39.44    \nframe=   87 fps=2.2 q=23.0 size=       1KiB time=00:00:01.72 bitrate=   2.6kbits/s speed=0.043x elapsed=0:00:39.95    \nframe=   87 fps=2.1 q=23.0 size=       1KiB time=00:00:01.72 bitrate=   2.6kbits/s speed=0.0425x elapsed=0:00:40.47    \nframe=   90 fps=2.2 q=24.0 size=       1KiB time=00:00:01.78 bitrate=   2.5kbits/s speed=0.0434x elapsed=0:00:40.99    \nframe=   91 fps=2.2 q=24.0 size=       1KiB time=00:00:01.80 bitrate=   2.5kbits/s speed=0.0434x elapsed=0:00:41.51    \nframe=   92 fps=2.2 q=21.0 size=       1KiB time=00:00:01.82 bitrate=   2.5kbits/s speed=0.0433x elapsed=0:00:42.03    \nframe=   95 fps=2.2 q=24.0 size=       1KiB time=00:00:01.88 bitrate=   2.4kbits/s speed=0.0442x elapsed=0:00:42.53    \nframe=   96 fps=2.2 q=23.0 size=       1KiB time=00:00:01.90 bitrate=   2.4kbits/s speed=0.0441x elapsed=0:00:43.06    \nframe=   98 fps=2.2 q=25.0 size=       1KiB time=00:00:01.94 bitrate=   2.3kbits/s speed=0.0445x elapsed=0:00:43.57    \nframe=   99 fps=2.2 q=25.0 size=       1KiB time=00:00:01.96 bitrate=   2.3kbits/s speed=0.0445x elapsed=0:00:44.08    \nframe=  101 fps=2.3 q=22.0 size=       1KiB time=00:00:02.00 bitrate=   2.2kbits/s speed=0.0448x elapsed=0:00:44.60    \nframe=  102 fps=2.3 q=24.0 size=       1KiB time=00:00:02.02 bitrate=   2.2kbits/s speed=0.0448x elapsed=0:00:45.12    \nframe=  103 fps=2.3 q=23.0 size=       1KiB time=00:00:02.04 bitrate=   2.2kbits/s speed=0.0447x elapsed=0:00:45.63    \nframe=  106 fps=2.3 q=25.0 size=       1KiB time=00:00:02.10 bitrate=   2.1kbits/s speed=0.0455x elapsed=0:00:46.15    \nframe=  107 fps=2.3 q=24.0 size=       1KiB time=00:00:02.12 bitrate=   2.1kbits/s speed=0.0454x elapsed=0:00:46.66    \nframe=  108 fps=2.3 q=22.0 size=       1KiB time=00:00:02.14 bitrate=   2.1kbits/s speed=0.0454x elapsed=0:00:47.17    \nframe=  110 fps=2.3 q=24.0 size=       1KiB time=00:00:02.18 bitrate=   2.1kbits/s speed=0.0457x elapsed=0:00:47.69    \nframe=  112 fps=2.3 q=24.0 size=       1KiB time=00:00:02.22 bitrate=   2.0kbits/s speed=0.046x elapsed=0:00:48.22    \nframe=  115 fps=2.4 q=24.0 size=       1KiB time=00:00:02.28 bitrate=   2.0kbits/s speed=0.0468x elapsed=0:00:48.74    \nframe=  115 fps=2.3 q=24.0 size=       1KiB time=00:00:02.28 bitrate=   2.0kbits/s speed=0.0463x elapsed=0:00:49.25    \nframe=  118 fps=2.4 q=24.0 size=       1KiB time=00:00:02.34 bitrate=   1.9kbits/s speed=0.047x elapsed=0:00:49.77    \nframe=  118 fps=2.3 q=24.0 size=       1KiB time=00:00:02.34 bitrate=   1.9kbits/s speed=0.0465x elapsed=0:00:50.28    \nframe=  119 fps=2.3 q=24.0 size=       1KiB time=00:00:02.36 bitrate=   1.9kbits/s speed=0.0465x elapsed=0:00:50.80    \nframe=  121 fps=2.4 q=19.0 size=       1KiB time=00:00:02.40 bitrate=   1.9kbits/s speed=0.0468x elapsed=0:00:51.31    \nframe=  122 fps=2.4 q=25.0 size=       1KiB time=00:00:02.42 bitrate=   1.9kbits/s speed=0.0467x elapsed=0:00:51.84    \nframe=  123 fps=2.3 q=24.0 size=       1KiB time=00:00:02.44 bitrate=   1.8kbits/s speed=0.0466x elapsed=0:00:52.35    \nframe=  124 fps=2.3 q=25.0 size=       1KiB time=00:00:02.46 bitrate=   1.8kbits/s speed=0.0465x elapsed=0:00:52.86    \nframe=  128 fps=2.4 q=25.0 size=       1KiB time=00:00:02.54 bitrate=   1.8kbits/s speed=0.0476x elapsed=0:00:53.38    \nframe=  129 fps=2.4 q=10.0 size=       1KiB time=00:00:02.56 bitrate=   1.8kbits/s speed=0.0475x elapsed=0:00:53.89    \nframe=  130 fps=2.4 q=25.0 size=       1KiB time=00:00:02.58 bitrate=   1.7kbits/s speed=0.0474x elapsed=0:00:54.40    \nframe=  131 fps=2.4 q=24.0 size=       1KiB time=00:00:02.60 bitrate=   1.7kbits/s speed=0.0473x elapsed=0:00:54.92    \nframe=  132 fps=2.4 q=25.0 size=       1KiB time=00:00:02.62 bitrate=   1.7kbits/s speed=0.0473x elapsed=0:00:55.44    \nframe=  133 fps=2.4 q=22.0 size=       1KiB time=00:00:02.64 bitrate=   1.7kbits/s speed=0.0472x elapsed=0:00:55.95    \nframe=  134 fps=2.4 q=25.0 size=       1KiB time=00:00:02.66 bitrate=   1.7kbits/s speed=0.0471x elapsed=0:00:56.47    \nframe=  135 fps=2.4 q=25.0 size=       1KiB time=00:00:02.68 bitrate=   1.7kbits/s speed=0.047x elapsed=0:00:56.99    \nframe=  138 fps=2.4 q=25.0 size=       1KiB time=00:00:02.74 bitrate=   1.6kbits/s speed=0.0476x elapsed=0:00:57.50    \nframe=  138 fps=2.4 q=25.0 size=       1KiB time=00:00:02.74 bitrate=   1.6kbits/s speed=0.0472x elapsed=0:00:58.02    \nframe=  140 fps=2.4 q=22.0 size=       1KiB time=00:00:02.78 bitrate=   1.6kbits/s speed=0.0475x elapsed=0:00:58.53    \nframe=  142 fps=2.4 q=25.0 size=       1KiB time=00:00:02.82 bitrate=   1.6kbits/s speed=0.0478x elapsed=0:00:59.05    \nframe=  145 fps=2.4 q=10.0 size=       1KiB time=00:00:02.88 bitrate=   1.6kbits/s speed=0.0483x elapsed=0:00:59.56    \nframe=  146 fps=2.4 q=25.0 size=       1KiB time=00:00:02.90 bitrate=   1.6kbits/s speed=0.0483x elapsed=0:01:00.08    \nframe=  147 fps=2.4 q=25.0 size=       1KiB time=00:00:02.92 bitrate=   1.5kbits/s speed=0.0482x elapsed=0:01:00.59    \nframe=  149 fps=2.4 q=23.0 size=       1KiB time=00:00:02.96 bitrate=   1.5kbits/s speed=0.0484x elapsed=0:01:01.11    \nframe=  150 fps=2.4 q=25.0 size=       1KiB time=00:00:02.98 bitrate=   1.5kbits/s speed=0.0484x elapsed=0:01:01.63    \nframe=  151 fps=2.4 q=25.0 size=       1KiB time=00:00:03.00 bitrate=   1.5kbits/s speed=0.0483x elapsed=0:01:02.14    \nframe=  154 fps=2.5 q=25.0 size=       1KiB time=00:00:03.06 bitrate=   1.5kbits/s speed=0.0488x elapsed=0:01:02.66    \nframe=  155 fps=2.5 q=24.0 size=       1KiB time=00:00:03.08 bitrate=   1.5kbits/s speed=0.0487x elapsed=0:01:03.18    \nframe=  157 fps=2.5 q=21.0 size=       1KiB time=00:00:03.12 bitrate=   1.4kbits/s speed=0.049x elapsed=0:01:03.69    \nframe=  159 fps=2.5 q=24.0 size=       1KiB time=00:00:03.16 bitrate=   1.4kbits/s speed=0.0492x elapsed=0:01:04.20    \nframe=  162 fps=2.5 q=26.0 size=    5120KiB time=00:00:03.22 bitrate=13025.8kbits/s speed=0.0497x elapsed=0:01:04.73    \nframe=  165 fps=2.5 q=23.0 size=    5120KiB time=00:00:03.26 bitrate=12866.0kbits/s speed=0.0499x elapsed=0:01:05.28    \nframe=  166 fps=2.5 q=26.0 size=    5120KiB time=00:00:03.30 bitrate=12710.0kbits/s speed=0.0501x elapsed=0:01:05.83    \nframe=  169 fps=2.5 q=18.0 size=    5120KiB time=00:00:03.36 bitrate=12483.0kbits/s speed=0.0506x elapsed=0:01:06.38    \nframe=  170 fps=2.5 q=25.0 size=    5120KiB time=00:00:03.38 bitrate=12409.2kbits/s speed=0.0505x elapsed=0:01:06.92    \nframe=  172 fps=2.5 q=22.0 size=    5120KiB time=00:00:03.40 bitrate=12336.2kbits/s speed=0.0504x elapsed=0:01:07.45    \nframe=  176 fps=2.6 q=25.0 size=    5120KiB time=00:00:03.50 bitrate=11983.7kbits/s speed=0.0514x elapsed=0:01:08.06    \nframe=  178 fps=2.6 q=25.0 size=    5120KiB time=00:00:03.54 bitrate=11848.3kbits/s speed=0.0515x elapsed=0:01:08.69    \nframe=  180 fps=2.6 q=25.0 size=    5120KiB time=00:00:03.58 bitrate=11715.9kbits/s speed=0.0517x elapsed=0:01:09.27    \nframe=  181 fps=2.6 q=23.0 size=    5120KiB time=00:00:03.60 bitrate=11650.8kbits/s speed=0.0516x elapsed=0:01:09.78    \nframe=  182 fps=2.6 q=25.0 size=    5120KiB time=00:00:03.62 bitrate=11586.5kbits/s speed=0.0515x elapsed=0:01:10.31    \nframe=  182 fps=2.6 q=25.0 size=    5120KiB time=00:00:03.62 bitrate=11586.5kbits/s speed=0.0511x elapsed=0:01:10.83    \nframe=  184 fps=2.6 q=25.0 size=    5120KiB time=00:00:03.66 bitrate=11459.8kbits/s speed=0.0513x elapsed=0:01:11.35    \nframe=  186 fps=2.6 q=24.0 size=    5120KiB time=00:00:03.70 bitrate=11336.0kbits/s speed=0.0515x elapsed=0:01:11.86    \nframe=  186 fps=2.6 q=24.0 size=    5120KiB time=00:00:03.70 bitrate=11336.0kbits/s speed=0.0511x elapsed=0:01:12.38    \nframe=  187 fps=2.6 q=23.0 size=    5120KiB time=00:00:03.72 bitrate=11275.0kbits/s speed=0.051x elapsed=0:01:12.91    \nframe=  188 fps=2.6 q=22.0 size=    5120KiB time=00:00:03.74 bitrate=11214.7kbits/s speed=0.0509x elapsed=0:01:13.44    \nframe=  191 fps=2.6 q=24.0 size=    5120KiB time=00:00:03.80 bitrate=11037.6kbits/s speed=0.0514x elapsed=0:01:13.98    \nframe=  193 fps=2.6 q=11.0 size=    5120KiB time=00:00:03.84 bitrate=10922.7kbits/s speed=0.0515x elapsed=0:01:14.51    \nframe=  194 fps=2.6 q=26.0 size=    5120KiB time=00:00:03.86 bitrate=10866.1kbits/s speed=0.0514x elapsed=0:01:15.10    \nframe=  196 fps=2.6 q=26.0 size=    5120KiB time=00:00:03.90 bitrate=10754.6kbits/s speed=0.0516x elapsed=0:01:15.63    \nframe=  198 fps=2.6 q=26.0 size=    5120KiB time=00:00:03.94 bitrate=10645.4kbits/s speed=0.0517x elapsed=0:01:16.15    \nframe=  200 fps=2.6 q=26.0 size=    5120KiB time=00:00:03.98 bitrate=10538.5kbits/s speed=0.0519x elapsed=0:01:16.75    \nframe=  202 fps=2.6 q=25.0 size=    5120KiB time=00:00:04.02 bitrate=10433.6kbits/s speed=0.052x elapsed=0:01:17.29    \nframe=  204 fps=2.6 q=23.0 size=    5120KiB time=00:00:04.06 bitrate=10330.8kbits/s speed=0.0521x elapsed=0:01:17.85    \nframe=  209 fps=2.7 q=11.0 size=    5120KiB time=00:00:04.16 bitrate=10082.5kbits/s speed=0.0531x elapsed=0:01:18.38    \nframe=  212 fps=2.7 q=26.0 size=    5120KiB time=00:00:04.22 bitrate=9939.1kbits/s speed=0.0535x elapsed=0:01:18.91    \nframe=  213 fps=2.7 q=24.0 size=    5120KiB time=00:00:04.24 bitrate=9892.2kbits/s speed=0.0534x elapsed=0:01:19.45    \nframe=  215 fps=2.7 q=22.0 size=    5120KiB time=00:00:04.28 bitrate=9799.8kbits/s speed=0.0535x elapsed=0:01:19.98    \nframe=  218 fps=2.7 q=26.0 size=    5120KiB time=00:00:04.32 bitrate=9709.0kbits/s speed=0.0536x elapsed=0:01:20.54    \nframe=  219 fps=2.7 q=25.0 size=    5120KiB time=00:00:04.36 bitrate=9620.0kbits/s speed=0.0537x elapsed=0:01:21.15    \nframe=  223 fps=2.7 q=25.0 size=    5120KiB time=00:00:04.44 bitrate=9446.6kbits/s speed=0.0543x elapsed=0:01:21.72    \nframe=  226 fps=2.7 q=26.0 size=    5120KiB time=00:00:04.50 bitrate=9320.7kbits/s speed=0.0547x elapsed=0:01:22.30    \nframe=  228 fps=2.8 q=26.0 size=    5120KiB time=00:00:04.54 bitrate=9238.6kbits/s speed=0.0548x elapsed=0:01:22.84    \nframe=  229 fps=2.7 q=24.0 size=    5120KiB time=00:00:04.56 bitrate=9198.0kbits/s speed=0.0547x elapsed=0:01:23.35    \nframe=  231 fps=2.8 q=20.0 size=    5120KiB time=00:00:04.60 bitrate=9118.1kbits/s speed=0.0548x elapsed=0:01:23.88    \nframe=  234 fps=2.8 q=26.0 size=    5120KiB time=00:00:04.64 bitrate=9039.4kbits/s speed=0.0549x elapsed=0:01:24.44    \nframe=  235 fps=2.8 q=25.0 size=    5120KiB time=00:00:04.68 bitrate=8962.2kbits/s speed=0.0551x elapsed=0:01:24.99    \nframe=  239 fps=2.8 q=25.0 size=    5120KiB time=00:00:04.76 bitrate=8811.6kbits/s speed=0.0556x elapsed=0:01:25.57    \nframe=  242 fps=2.8 q=26.0 size=    5120KiB time=00:00:04.82 bitrate=8701.9kbits/s speed=0.056x elapsed=0:01:26.11    \nframe=  244 fps=2.8 q=26.0 size=    5120KiB time=00:00:04.86 bitrate=8630.3kbits/s speed=0.0561x elapsed=0:01:26.68    \nframe=  245 fps=2.8 q=24.0 size=    5120KiB time=00:00:04.88 bitrate=8594.9kbits/s speed=0.056x elapsed=0:01:27.21    \nframe=  247 fps=2.8 q=24.0 size=    5120KiB time=00:00:04.92 bitrate=8525.0kbits/s speed=0.0561x elapsed=0:01:27.77    \nframe=  249 fps=2.8 q=19.0 size=    5120KiB time=00:00:04.96 bitrate=8456.3kbits/s speed=0.0561x elapsed=0:01:28.34    \nframe=  251 fps=2.8 q=24.0 size=    5120KiB time=00:00:05.00 bitrate=8388.6kbits/s speed=0.0563x elapsed=0:01:28.87    \nframe=  254 fps=2.8 q=25.0 size=    5120KiB time=00:00:05.06 bitrate=8289.1kbits/s speed=0.0566x elapsed=0:01:29.42    \nframe=  257 fps=2.9 q=12.0 size=    5120KiB time=00:00:05.12 bitrate=8192.0kbits/s speed=0.0569x elapsed=0:01:29.95    \nframe=  259 fps=2.9 q=25.0 size=    5120KiB time=00:00:05.16 bitrate=8128.5kbits/s speed=0.057x elapsed=0:01:30.49    \nframe=  261 fps=2.9 q=24.0 size=    5120KiB time=00:00:05.20 bitrate=8066.0kbits/s speed=0.0571x elapsed=0:01:31.03    \nframe=  262 fps=2.9 q=25.0 size=    5120KiB time=00:00:05.22 bitrate=8035.1kbits/s speed=0.057x elapsed=0:01:31.57    \nframe=  265 fps=2.9 q=19.0 size=    5120KiB time=00:00:05.28 bitrate=7943.8kbits/s speed=0.0573x elapsed=0:01:32.10    \nframe=  267 fps=2.9 q=24.0 size=    5120KiB time=00:00:05.32 bitrate=7884.0kbits/s speed=0.0574x elapsed=0:01:32.64    \nframe=  271 fps=2.9 q=24.0 size=    5120KiB time=00:00:05.36 bitrate=7825.2kbits/s speed=0.0575x elapsed=0:01:33.19    \nframe=  273 fps=2.9 q=11.0 size=    5120KiB time=00:00:05.44 bitrate=7710.1kbits/s speed=0.058x elapsed=0:01:33.74    \nframe=  276 fps=2.9 q=26.0 size=    5120KiB time=00:00:05.50 bitrate=7626.0kbits/s speed=0.0583x elapsed=0:01:34.26    \nframe=  278 fps=2.9 q=25.0 size=    5120KiB time=00:00:05.52 bitrate=7598.4kbits/s speed=0.0582x elapsed=0:01:34.79    \nframe=  280 fps=2.9 q=25.0 size=    5120KiB time=00:00:05.58 bitrate=7516.7kbits/s speed=0.0585x elapsed=0:01:35.38    \nframe=  282 fps=2.9 q=25.0 size=    5120KiB time=00:00:05.62 bitrate=7463.2kbits/s speed=0.0586x elapsed=0:01:35.90    \nframe=  283 fps=2.9 q=24.0 size=    5120KiB time=00:00:05.64 bitrate=7436.7kbits/s speed=0.0585x elapsed=0:01:36.45    \nframe=  287 fps=3.0 q=23.0 size=    5120KiB time=00:00:05.72 bitrate=7332.7kbits/s speed=0.059x elapsed=0:01:36.99    \nframe=  289 fps=3.0 q=12.0 size=    5120KiB time=00:00:05.76 bitrate=7281.8kbits/s speed=0.059x elapsed=0:01:37.59    \nframe=  292 fps=3.0 q=26.0 size=    5120KiB time=00:00:05.80 bitrate=7231.6kbits/s speed=0.0591x elapsed=0:01:38.16    \nframe=  293 fps=3.0 q=24.0 size=    5120KiB time=00:00:05.84 bitrate=7182.0kbits/s speed=0.0591x elapsed=0:01:38.76    \nframe=  296 fps=3.0 q=26.0 size=    5120KiB time=00:00:05.90 bitrate=7109.0kbits/s speed=0.0594x elapsed=0:01:39.37    \nframe=  299 fps=3.0 q=25.0 size=    5120KiB time=00:00:05.94 bitrate=7061.1kbits/s speed=0.0594x elapsed=0:01:39.98    \nframe=  301 fps=3.0 q=24.0 size=    5120KiB time=00:00:06.00 bitrate=6990.5kbits/s speed=0.0597x elapsed=0:01:40.55    \nframe=  305 fps=3.0 q=12.0 size=    5120KiB time=00:00:06.08 bitrate=6898.5kbits/s speed=0.0601x elapsed=0:01:41.12    \nframe=  306 fps=3.0 q=26.0 size=    5120KiB time=00:00:06.08 bitrate=6898.5kbits/s speed=0.0598x elapsed=0:01:41.67    \nframe=  309 fps=3.0 q=24.0 size=    5120KiB time=00:00:06.16 bitrate=6808.9kbits/s speed=0.0602x elapsed=0:01:42.27    \nframe=  312 fps=3.0 q=20.0 size=    5120KiB time=00:00:06.22 bitrate=6743.3kbits/s speed=0.0605x elapsed=0:01:42.84    \nframe=  313 fps=3.0 q=22.0 size=    5120KiB time=00:00:06.24 bitrate=6721.6kbits/s speed=0.0603x elapsed=0:01:43.40    \nframe=  313 fps=3.0 q=22.0 size=    5120KiB time=00:00:06.24 bitrate=6721.6kbits/s speed=0.06x elapsed=0:01:43.94    \nframe=  316 fps=3.0 q=26.0 size=    5120KiB time=00:00:06.30 bitrate=6657.6kbits/s speed=0.0603x elapsed=0:01:44.52    \nframe=  317 fps=3.0 q=24.0 size=    5120KiB time=00:00:06.32 bitrate=6636.6kbits/s speed=0.0601x elapsed=0:01:45.08    \nframe=  319 fps=3.0 q=26.0 size=    5120KiB time=00:00:06.36 bitrate=6594.8kbits/s speed=0.0602x elapsed=0:01:45.66    \nframe=  323 fps=3.0 q=27.0 size=    8704KiB time=00:00:06.44 bitrate=11071.9kbits/s speed=0.0606x elapsed=0:01:46.20    \nframe=  326 fps=3.1 q=24.0 size=    8704KiB time=00:00:06.50 bitrate=10969.7kbits/s speed=0.0609x elapsed=0:01:46.72    \nframe=  328 fps=3.1 q=25.0 size=    8704KiB time=00:00:06.52 bitrate=10936.1kbits/s speed=0.0608x elapsed=0:01:47.25    \nframe=  329 fps=3.1 q=26.0 size=    8704KiB time=00:00:06.56 bitrate=10869.4kbits/s speed=0.0608x elapsed=0:01:47.85    \nframe=  330 fps=3.0 q=19.0 size=    8704KiB time=00:00:06.58 bitrate=10836.3kbits/s speed=0.0607x elapsed=0:01:48.43    \nframe=  333 fps=3.1 q=23.0 size=    8704KiB time=00:00:06.64 bitrate=10738.4kbits/s speed=0.0609x elapsed=0:01:48.98    \nframe=  334 fps=3.0 q=24.0 size=    8704KiB time=00:00:06.66 bitrate=10706.2kbits/s speed=0.0608x elapsed=0:01:49.52    \nframe=  337 fps=3.1 q=26.0 size=    8704KiB time=00:00:06.72 bitrate=10610.6kbits/s speed=0.0611x elapsed=0:01:50.04    \nframe=  340 fps=3.1 q=25.0 size=    8704KiB time=00:00:06.76 bitrate=10547.8kbits/s speed=0.0611x elapsed=0:01:50.55    \nframe=  342 fps=3.1 q=24.0 size=    8704KiB time=00:00:06.82 bitrate=10455.0kbits/s speed=0.0614x elapsed=0:01:51.12    \nframe=  344 fps=3.1 q=21.0 size=    8704KiB time=00:00:06.86 bitrate=10394.0kbits/s speed=0.0614x elapsed=0:01:51.65    \nframe=  345 fps=3.1 q=24.0 size=    8704KiB time=00:00:06.88 bitrate=10363.8kbits/s speed=0.0613x elapsed=0:01:52.18    \nframe=  346 fps=3.1 q=20.0 size=    8704KiB time=00:00:06.90 bitrate=10333.8kbits/s speed=0.0612x elapsed=0:01:52.71    \nframe=  349 fps=3.1 q=26.0 size=    8704KiB time=00:00:06.94 bitrate=10274.2kbits/s speed=0.0613x elapsed=0:01:53.27    \nframe=  351 fps=3.1 q=26.0 size=    8704KiB time=00:00:06.98 bitrate=10215.4kbits/s speed=0.0613x elapsed=0:01:53.81    \nframe=  355 fps=3.1 q=27.0 size=    8704KiB time=00:00:07.08 bitrate=10071.1kbits/s speed=0.0619x elapsed=0:01:54.40    \nframe=  358 fps=3.1 q=24.0 size=    8704KiB time=00:00:07.12 bitrate=10014.5kbits/s speed=0.062x elapsed=0:01:54.92    \nframe=  360 fps=3.1 q=26.0 size=    8704KiB time=00:00:07.18 bitrate=9930.8kbits/s speed=0.0622x elapsed=0:01:55.51    \nframe=  361 fps=3.1 q=27.0 size=    8704KiB time=00:00:07.20 bitrate=9903.2kbits/s speed=0.062x elapsed=0:01:56.04    \nframe=  363 fps=3.1 q=26.0 size=    8704KiB time=00:00:07.22 bitrate=9875.8kbits/s speed=0.0619x elapsed=0:01:56.60    \nframe=  366 fps=3.1 q=23.0 size=    8704KiB time=00:00:07.30 bitrate=9767.6kbits/s speed=0.0623x elapsed=0:01:57.16    \nframe=  367 fps=3.1 q=26.0 size=    8704KiB time=00:00:07.32 bitrate=9740.9kbits/s speed=0.0622x elapsed=0:01:57.69    \nframe=  371 fps=3.1 q=27.0 size=    8704KiB time=00:00:07.40 bitrate=9635.6kbits/s speed=0.0626x elapsed=0:01:58.23    \nframe=  373 fps=3.1 q=27.0 size=    8704KiB time=00:00:07.44 bitrate=9583.8kbits/s speed=0.0626x elapsed=0:01:58.76    \nframe=  377 fps=3.2 q=27.0 size=    8704KiB time=00:00:07.50 bitrate=9507.1kbits/s speed=0.0629x elapsed=0:01:59.30    \nframe=  378 fps=3.2 q=20.0 size=    8704KiB time=00:00:07.54 bitrate=9456.7kbits/s speed=0.0629x elapsed=0:01:59.90    \nframe=  380 fps=3.2 q=25.0 size=    8704KiB time=00:00:07.58 bitrate=9406.8kbits/s speed=0.0629x elapsed=0:02:00.52    \nframe=  382 fps=3.2 q=23.0 size=    8704KiB time=00:00:07.62 bitrate=9357.4kbits/s speed=0.0629x elapsed=0:02:01.12    \nframe=  383 fps=3.1 q=25.0 size=    8704KiB time=00:00:07.64 bitrate=9332.9kbits/s speed=0.0628x elapsed=0:02:01.65    \nframe=  388 fps=3.2 q=25.0 size=    8704KiB time=00:00:07.72 bitrate=9236.2kbits/s speed=0.0632x elapsed=0:02:02.19    \nframe=  406 fps=3.3 q=24.0 size=    8704KiB time=00:00:08.10 bitrate=8802.9kbits/s speed=0.066x elapsed=0:02:02.77    \nframe=  408 fps=3.3 q=24.0 size=    8704KiB time=00:00:08.14 bitrate=8759.6kbits/s speed=0.066x elapsed=0:02:03.28    \nframe=  410 fps=3.3 q=20.0 size=    8704KiB time=00:00:08.18 bitrate=8716.8kbits/s speed=0.0661x elapsed=0:02:03.80    \nframe=  410 fps=3.3 q=20.0 size=    8704KiB time=00:00:08.18 bitrate=8716.8kbits/s speed=0.0658x elapsed=0:02:04.32    \nframe=  414 fps=3.3 q=22.0 size=    8704KiB time=00:00:08.26 bitrate=8632.3kbits/s speed=0.0662x elapsed=0:02:04.86    \nframe=  416 fps=3.3 q=25.0 size=    8704KiB time=00:00:08.30 bitrate=8590.7kbits/s speed=0.0662x elapsed=0:02:05.43    \nframe=  418 fps=3.3 q=13.0 size=    8704KiB time=00:00:08.34 bitrate=8549.5kbits/s speed=0.0662x elapsed=0:02:05.99    \nframe=  422 fps=3.3 q=24.0 size=    8704KiB time=00:00:08.42 bitrate=8468.3kbits/s speed=0.0666x elapsed=0:02:06.51    \nframe=  422 fps=3.3 q=24.0 size=    8704KiB time=00:00:08.42 bitrate=8468.3kbits/s speed=0.0663x elapsed=0:02:07.06    \nframe=  426 fps=3.3 q=20.0 size=    8704KiB time=00:00:08.50 bitrate=8388.6kbits/s speed=0.0666x elapsed=0:02:07.66    \nframe=  428 fps=3.3 q=25.0 size=    8704KiB time=00:00:08.54 bitrate=8349.3kbits/s speed=0.0666x elapsed=0:02:08.20    \nframe=  430 fps=3.3 q=22.0 size=    8704KiB time=00:00:08.58 bitrate=8310.4kbits/s speed=0.0666x elapsed=0:02:08.74    \nframe=  432 fps=3.3 q=24.0 size=    8704KiB time=00:00:08.62 bitrate=8271.8kbits/s speed=0.0667x elapsed=0:02:09.28    \nframe=  434 fps=3.3 q=12.0 size=    8704KiB time=00:00:08.66 bitrate=8233.6kbits/s speed=0.0667x elapsed=0:02:09.82    \nframe=  438 fps=3.4 q=24.0 size=    8704KiB time=00:00:08.74 bitrate=8158.3kbits/s speed=0.067x elapsed=0:02:10.36    \nframe=  440 fps=3.4 q=24.0 size=    8704KiB time=00:00:08.78 bitrate=8121.1kbits/s speed=0.0671x elapsed=0:02:10.90    \nframe=  442 fps=3.4 q=19.0 size=    8704KiB time=00:00:08.82 bitrate=8084.3kbits/s speed=0.0671x elapsed=0:02:11.42    \nframe=  444 fps=3.4 q=25.0 size=    8704KiB time=00:00:08.86 bitrate=8047.8kbits/s speed=0.0671x elapsed=0:02:11.94    \nframe=  446 fps=3.4 q=22.0 size=    8704KiB time=00:00:08.90 bitrate=8011.6kbits/s speed=0.0672x elapsed=0:02:12.49    \nframe=  450 fps=3.4 q=11.0 size=    8704KiB time=00:00:08.98 bitrate=7940.2kbits/s speed=0.0675x elapsed=0:02:13.08    \nframe=  452 fps=3.4 q=25.0 size=    8704KiB time=00:00:08.98 bitrate=7940.2kbits/s speed=0.0672x elapsed=0:02:13.61    \nframe=  454 fps=3.4 q=23.0 size=    8704KiB time=00:00:09.06 bitrate=7870.1kbits/s speed=0.0675x elapsed=0:02:14.18    \nframe=  458 fps=3.4 q=19.0 size=    8704KiB time=00:00:09.14 bitrate=7801.2kbits/s speed=0.0678x elapsed=0:02:14.71    \nframe=  458 fps=3.4 q=19.0 size=    8704KiB time=00:00:09.14 bitrate=7801.2kbits/s speed=0.0675x elapsed=0:02:15.34    \nframe=  458 fps=3.4 q=19.0 size=    8704KiB time=00:00:09.14 bitrate=7801.2kbits/s speed=0.0673x elapsed=0:02:15.86    \nframe=  460 fps=3.4 q=25.0 size=    8704KiB time=00:00:09.14 bitrate=7801.2kbits/s speed=0.067x elapsed=0:02:16.39    \nframe=  462 fps=3.4 q=22.0 size=    8704KiB time=00:00:09.22 bitrate=7733.5kbits/s speed=0.0673x elapsed=0:02:16.92    \nframe=  462 fps=3.4 q=22.0 size=    8704KiB time=00:00:09.22 bitrate=7733.5kbits/s speed=0.0671x elapsed=0:02:17.44    \nframe=  466 fps=3.4 q=11.0 size=    8704KiB time=00:00:09.30 bitrate=7667.0kbits/s speed=0.0674x elapsed=0:02:17.99    \nframe=  470 fps=3.4 q=24.0 size=    8704KiB time=00:00:09.38 bitrate=7601.6kbits/s speed=0.0677x elapsed=0:02:18.52    \nframe=  472 fps=3.4 q=26.0 size=    8704KiB time=00:00:09.38 bitrate=7601.6kbits/s speed=0.0675x elapsed=0:02:19.04    \nframe=  474 fps=3.4 q=19.0 size=    8704KiB time=00:00:09.46 bitrate=7537.3kbits/s speed=0.0678x elapsed=0:02:19.59    \nframe=  474 fps=3.4 q=19.0 size=    8704KiB time=00:00:09.46 bitrate=7537.3kbits/s speed=0.0675x elapsed=0:02:20.16    \nframe=  476 fps=3.4 q=27.0 size=    8704KiB time=00:00:09.50 bitrate=7505.6kbits/s speed=0.0675x elapsed=0:02:20.73    \nframe=  478 fps=3.4 q=26.0 size=    8704KiB time=00:00:09.54 bitrate=7474.1kbits/s speed=0.0675x elapsed=0:02:21.30    \nframe=  480 fps=3.4 q=29.0 size=    8704KiB time=00:00:09.58 bitrate=7442.9kbits/s speed=0.0675x elapsed=0:02:21.85    \nframe=  486 fps=3.4 q=29.0 size=    8704KiB time=00:00:09.70 bitrate=7350.8kbits/s speed=0.0681x elapsed=0:02:22.40    \nframe=  488 fps=3.4 q=28.0 size=    8704KiB time=00:00:09.74 bitrate=7320.7kbits/s speed=0.0681x elapsed=0:02:22.99    \nframe=  490 fps=3.4 q=26.0 size=    8704KiB time=00:00:09.78 bitrate=7290.7kbits/s speed=0.0681x elapsed=0:02:23.59    \nframe=  490 fps=3.4 q=26.0 size=    8704KiB time=00:00:09.78 bitrate=7290.7kbits/s speed=0.0679x elapsed=0:02:24.13    \nframe=  494 fps=3.4 q=29.0 size=    8704KiB time=00:00:09.86 bitrate=7231.6kbits/s speed=0.0682x elapsed=0:02:24.67    \nframe=  496 fps=3.4 q=28.0 size=    8704KiB time=00:00:09.86 bitrate=7231.6kbits/s speed=0.0679x elapsed=0:02:25.20    \n[out#0/matroska @ 0000025b356d9340] video:13574KiB audio:0KiB subtitle:0KiB other streams:0KiB global headers:0KiB muxing overhead: 0.022023%\nframe=  500 fps=3.4 q=24.0 Lsize=   13577KiB time=00:00:09.98 bitrate=11144.2kbits/s speed=0.0686x elapsed=0:02:25.44    \n",
  "seconds": 146.3191156387329,
  "probe_out": {}
}